<?xml version="1.0" encoding="UTF-8"?>
<svg xmlns="http://www.w3.org/2000/svg" viewBox="0 0 1280 640" width="1280" height="640">
  <defs>
    <linearGradient id="bg" x1="0" y1="0" x2="1" y2="1">
      <stop offset="0%" stop-color="#0a0a0f"/>
      <stop offset="50%" stop-color="#0f0f1a"/>
      <stop offset="100%" stop-color="#1a0a0a"/>
    </linearGradient>
    <linearGradient id="gold" x1="0" y1="0" x2="1" y2="0">
      <stop offset="0%" stop-color="#c9a84c"/>
      <stop offset="100%" stop-color="#e8c85a"/>
    </linearGradient>
    <linearGradient id="glow" x1="0" y1="0" x2="1" y2="1">
      <stop offset="0%" stop-color="#c9a84c" stop-opacity="0.15"/>
      <stop offset="100%" stop-color="#c9a84c" stop-opacity="0"/>
    </linearGradient>
  </defs>

  <!-- Background -->
  <rect width="1280" height="640" fill="url(#bg)"/>

  <!-- Subtle grid pattern -->
  <g opacity="0.03">
    <line x1="0" y1="80" x2="1280" y2="80" stroke="#c9a84c" stroke-width="0.5"/>
    <line x1="0" y1="160" x2="1280" y2="160" stroke="#c9a84c" stroke-width="0.5"/>
    <line x1="0" y1="240" x2="1280" y2="240" stroke="#c9a84c" stroke-width="0.5"/>
    <line x1="0" y1="320" x2="1280" y2="320" stroke="#c9a84c" stroke-width="0.5"/>
    <line x1="0" y1="400" x2="1280" y2="400" stroke="#c9a84c" stroke-width="0.5"/>
    <line x1="0" y1="480" x2="1280" y2="480" stroke="#c9a84c" stroke-width="0.5"/>
    <line x1="0" y1="560" x2="1280" y2="560" stroke="#c9a84c" stroke-width="0.5"/>
    <line x1="160" y1="0" x2="160" y2="640" stroke="#c9a84c" stroke-width="0.5"/>
    <line x1="320" y1="0" x2="320" y2="640" stroke="#c9a84c" stroke-width="0.5"/>
    <line x1="480" y1="0" x2="480" y2="640" stroke="#c9a84c" stroke-width="0.5"/>
    <line x1="640" y1="0" x2="640" y2="640" stroke="#c9a84c" stroke-width="0.5"/>
    <line x1="800" y1="0" x2="800" y2="640" stroke="#c9a84c" stroke-width="0.5"/>
    <line x1="960" y1="0" x2="960" y2="640" stroke="#c9a84c" stroke-width="0.5"/>
    <line x1="1120" y1="0" x2="1120" y2="640" stroke="#c9a84c" stroke-width="0.5"/>
  </g>

  <!-- Accent glow -->
  <ellipse cx="640" cy="200" rx="500" ry="250" fill="url(#glow)"/>

  <!-- Decorative scale icon (left) -->
  <g transform="translate(90, 240)" fill="none" stroke="url(#gold)" stroke-width="2.5" opacity="0.2">
    <!-- Balance scale -->
    <line x1="0" y1="0" x2="0" y2="40"/>
    <line x1="-50" y1="8" x2="50" y2="8"/>
    <path d="M-50,8 L-35,35 L-15,35 Z"/>
    <path d="M50,8 L35,35 L15,35 Z"/>
    <circle cx="0" cy="42" r="4" fill="url(#gold)"/>
  </g>

  <!-- Gavel icon (right) -->
  <g transform="translate(1140, 240)" fill="none" stroke="url(#gold)" stroke-width="2.5" opacity="0.2">
    <rect x="-12" y="-30" width="24" height="28" rx="3"/>
    <line x1="0" y1="-2" x2="0" y2="40"/>
    <rect x="-30" y="20" width="60" height="8" rx="2"/>
  </g>

  <!-- Title -->
  <text x="640" y="210" text-anchor="middle" font-family="'Georgia', 'Times New Roman', serif" font-size="72" font-weight="bold" fill="#ffffff" letter-spacing="2">
    German Law Vault
  </text>

  <!-- Subtitle -->
  <text x="640" y="275" text-anchor="middle" font-family="'Inter', 'Helvetica Neue', sans-serif" font-size="24" fill="#a0a0b0" letter-spacing="1.5">
    6,000+ German Federal Laws — AI-Guided Legal Analysis &amp; Semantic Search
  </text>

  <!-- Badge row -->
  <g transform="translate(640, 360)">
    <rect x="-240" y="-18" width="120" height="36" rx="18" fill="none" stroke="#333" stroke-width="1"/>
    <text x="-180" y="5" text-anchor="middle" font-family="'Inter', sans-serif" font-size="13" fill="#888">Next.js 16</text>

    <rect x="-105" y="-18" width="100" height="36" rx="18" fill="none" stroke="#333" stroke-width="1"/>
    <text x="-55" y="5" text-anchor="middle" font-family="'Inter', sans-serif" font-size="13" fill="#888">Supabase</text>

    <rect x="10" y="-18" width="90" height="36" rx="18" fill="none" stroke="#333" stroke-width="1"/>
    <text x="55" y="5" text-anchor="middle" font-family="'Inter', sans-serif" font-size="13" fill="#888">Qdrant</text>

    <rect x="115" y="-18" width="130" height="36" rx="18" fill="none" stroke="#333" stroke-width="1"/>
    <text x="180" y="5" text-anchor="middle" font-family="'Inter', sans-serif" font-size="13" fill="#888">Transformers.js</text>
  </g>

  <!-- Feature tags -->
  <g transform="translate(640, 440)" font-family="'Inter', sans-serif" font-size="14" fill="#666" text-anchor="middle">
    <text x="-270" y="0">🔍 Semantic Search</text>
    <text x="-90" y="0">📚 Bookmark Folders</text>
    <text x="90" y="0">🤖 AI Guidance Engine</text>
    <text x="270" y="0">📄 Document Templates</text>

    <text x="-270" y="30">🌍 9 Languages</text>
    <text x="-90" y="30">🔐 AES-256-GCM Encryption</text>
    <text x="90" y="30">⚖️ RVG/GKG Fee Calculator</text>
    <text x="270" y="30">🛡️ RLS + CSP</text>
  </g>

  <!-- Bottom divider -->
  <line x1="200" y1="530" x2="1080" y2="530" stroke="#c9a84c" stroke-width="0.5" opacity="0.3"/>

  <!-- Footer -->
  <text x="640" y="575" text-anchor="middle" font-family="'Inter', sans-serif" font-size="13" fill="#555" letter-spacing="1">
    ai-assisted-german-law-shahriarhaqueabir.vercel.app
  </text>

  <!-- License badge -->
  <text x="640" y="605" text-anchor="middle" font-family="'Inter', sans-serif" font-size="11" fill="#444">
    Apache 2.0 License
  </text>
</svg>
